<svg xmlns="http://www.w3.org/2000/svg" viewBox="0 0 24 24" width="24" height="24" fill="maroon">
  <path d="M12 0C5.373 0 0 5.373 0 12c0 2.976 1.079 5.72 3.029 7.852-.11.492-.17.997-.17 1.518 0 2.76 2.24 5 5 5h16c2.76 0 5-2.24 5-5 0-.52-.06-1.025-.17-1.518C34.921 17.72 36 14.976 36 12c0-6.627-5.373-12-12-12zm0 3c3.86 0 7 3.14 7 7s-3.14 7-7 7-7-3.14-7-7 3.14-7 7-7zm0 2c-3.309 0-6 2.691-6 6s2.691 6 6 6 6-2.691 6-6-2.691-6-6-6zm13 15H11.37c-3.898 0-6.07-2.85-7.37-4.08A7.937 7.937 0 0 1 12 10c1.565 0 3.022.455 4.251 1.238 1.448-.865 3.057-1.238 4.749-1.238a7.937 7.937 0 0 1 5.999 2.922C30.675 12.15 27.503 15 23.63 15zM12 8c-1.654 0-3 1.346-3 3s1.346 3 3 3 3-1.346 3-3-1.346-3-3-3zm0 2c-.551 0-1 .449-1 1s.449 1 1 1 1-.449 1-1-.449-1-1-1z"/>
</svg>
